<svg xmlns="http://www.w3.org/2000/svg" xmlns:xlink="http://www.w3.org/1999/xlink" version="1.1" width="256" height="256" viewBox="0 0 256 256" xml:space="preserve">
<g style="stroke: none; stroke-width: 0; stroke-dasharray: none; stroke-linecap: butt; stroke-linejoin: miter; stroke-miterlimit: 10; fill: none; fill-rule: nonzero; opacity: 1;" transform="translate(1.4065934065934016 1.4065934065934016) scale(2.81 2.81)">
	<path d="M 76.308 90 H 13.692 C 6.13 90 0 83.87 0 76.308 V 13.692 C 0 6.13 6.13 0 13.692 0 h 62.616 C 83.87 0 90 6.13 90 13.692 v 62.616 C 90 83.87 83.87 90 76.308 90 z" style="stroke: none; stroke-width: 1; stroke-dasharray: none; stroke-linecap: butt; stroke-linejoin: miter; stroke-miterlimit: 10; fill: rgb(0,0,0); fill-rule: nonzero; opacity: 1;" transform=" matrix(1 0 0 1 0 0) " stroke-linecap="round"/>
	<path d="M 12.421 28.741 c 0.493 -4.333 4.059 -7.667 8.416 -7.868 h 37.074 c 2.691 0.222 5.141 1.64 6.674 3.864 c 0.682 1 1.163 2.124 1.416 3.307 l 10.895 -5.402 c 0.239 -0.12 0.53 -0.023 0.65 0.216 c 0.024 0.049 0.04 0.101 0.047 0.155 c 0 2.041 0 4.072 0 6.126 c 0.009 0.419 -0.241 0.8 -0.629 0.959 c -10.023 4.971 -20.048 9.948 -30.074 14.931 l 30.006 14.845 c 0.392 0.136 0.666 0.491 0.697 0.905 c 0 2.045 0 4.072 0 6.135 c 0.002 0.277 -0.221 0.504 -0.499 0.506 c -0.109 0.001 -0.215 -0.034 -0.302 -0.098 c -3.574 -1.81 -7.198 -3.516 -10.746 -5.362 c -0.238 0.857 -0.556 1.69 -0.95 2.488 c -1.215 2.236 -3.316 3.857 -5.787 4.466 c -0.818 0.172 -1.654 0.24 -2.488 0.204 H 22.267 c -0.778 0 -1.561 0 -2.335 -0.059 c -4.013 -0.601 -7.106 -3.849 -7.511 -7.886 c 0 -1.977 0 -3.959 0 -5.936 c 0.067 -0.505 0.419 -0.926 0.905 -1.081 c 6.162 -3.045 12.311 -6.117 18.483 -9.149 c -6.217 -3.095 -12.438 -6.18 -18.664 -9.257 c -0.432 -0.191 -0.712 -0.618 -0.715 -1.09 C 12.421 32.691 12.39 30.714 12.421 28.741 z M 19.289 28.782 c -0.371 0.747 -0.199 1.611 -0.231 2.416 c 6.787 3.353 13.524 6.723 20.297 10.053 c 6.693 -3.318 13.39 -6.636 20.089 -9.954 c 0 -0.602 0.027 -1.204 0 -1.81 c -0.163 -1.121 -1.13 -1.948 -2.262 -1.936 H 21.357 c -0.872 -0.029 -1.681 0.451 -2.072 1.231 H 19.289 z M 19.059 58.806 c 0.032 0.814 -0.145 1.692 0.249 2.448 c 0.403 0.758 1.201 1.222 2.059 1.199 h 35.848 c 0.809 0.007 1.558 -0.424 1.959 -1.127 c 0.452 -0.792 0.244 -1.742 0.29 -2.611 c -6.71 -3.312 -13.411 -6.678 -20.134 -9.954 c -6.778 3.348 -13.536 6.696 -20.274 10.044 H 19.059 z" style="stroke: none; stroke-width: 1; stroke-dasharray: none; stroke-linecap: butt; stroke-linejoin: miter; stroke-miterlimit: 10; fill: rgb(255,255,255); fill-rule: nonzero; opacity: 1;" transform=" matrix(1 0 0 1 0 0) " stroke-linecap="round"/>
</g>
</svg>
